<svg width="17" height="16" viewBox="0 0 17 16" fill="none" xmlns="http://www.w3.org/2000/svg">
<path d="M13 14.5C13 12.9087 12.3679 11.3826 11.2426 10.2574C10.1174 9.13214 8.5913 8.5 7 8.5C5.4087 8.5 3.88258 9.13214 2.75736 10.2574C1.63214 11.3826 1 12.9087 1 14.5" stroke="#333333" stroke-width="2" stroke-linecap="round" stroke-linejoin="round"/>
<path d="M7 8.5C9.07107 8.5 10.75 6.82107 10.75 4.75C10.75 2.67893 9.07107 1 7 1C4.92893 1 3.25 2.67893 3.25 4.75C3.25 6.82107 4.92893 8.5 7 8.5Z" stroke="#333333" stroke-width="2" stroke-linecap="round" stroke-linejoin="round"/>
<path d="M15.9996 13.7504C15.9996 11.2229 14.4996 8.87539 12.9996 7.75039C13.4927 7.38047 13.8869 6.89471 14.1475 6.33609C14.4081 5.77748 14.527 5.16324 14.4936 4.54774C14.4603 3.93224 14.2757 3.33446 13.9562 2.80729C13.6368 2.28013 13.1923 1.83984 12.6621 1.52539" stroke="#333333" stroke-width="2" stroke-linecap="round" stroke-linejoin="round"/>
</svg>
