<svg width="45" height="44" viewBox="0 0 45 44" fill="none" xmlns="http://www.w3.org/2000/svg">
<path d="M22.5 43.334C18.0499 43.334 13.6998 42.0633 9.99968 39.6825C6.29957 37.3017 3.41569 33.9179 1.71272 29.9588C0.00974889 25.9997 -0.435826 21.6433 0.432341 17.4404C1.30051 13.2374 3.44343 9.37681 6.59011 6.34667C9.73679 3.31653 13.7459 1.25298 18.1105 0.416966C22.4751 -0.419047 26.9991 0.0100255 31.1104 1.64992C35.2217 3.28982 38.7357 6.0669 41.2081 9.62996C43.6804 13.193 45 17.3821 45 21.6673C44.9935 27.4117 42.6208 32.9191 38.4027 36.981C34.1845 41.0429 28.4654 43.3277 22.5 43.334ZM22.5 4.33398C18.9399 4.33398 15.4598 5.35057 12.4997 7.25518C9.53966 9.15979 7.23256 11.8669 5.87018 15.0341C4.5078 18.2014 4.15134 21.6865 4.84588 25.0489C5.54041 28.4112 7.25474 31.4997 9.77209 33.9238C12.2894 36.3479 15.4967 37.9988 18.9884 38.6676C22.48 39.3364 26.0992 38.9931 29.3883 37.6812C32.6774 36.3693 35.4886 34.1477 37.4665 31.2972C39.4443 28.4467 40.5 25.0955 40.5 21.6673C40.4941 17.072 38.5957 12.6665 35.2214 9.41713C31.847 6.16774 27.2721 4.33972 22.5 4.33398ZM22.5 22.7507C21.9033 22.7507 21.331 22.5224 20.909 22.116C20.4871 21.7097 20.25 21.1586 20.25 20.584V14.084C20.25 13.5093 20.4871 12.9582 20.909 12.5519C21.331 12.1456 21.9033 11.9173 22.5 11.9173C23.0968 11.9173 23.669 12.1456 24.091 12.5519C24.513 12.9582 24.75 13.5093 24.75 14.084V20.584C24.75 21.1586 24.513 21.7097 24.091 22.116C23.669 22.5224 23.0968 22.7507 22.5 22.7507ZM22.5 31.4173C21.9438 31.4173 21.4 31.2585 20.9375 30.9609C20.475 30.6633 20.1145 30.2403 19.9016 29.7454C19.6887 29.2505 19.633 28.706 19.7416 28.1806C19.8501 27.6552 20.1179 27.1727 20.5113 26.7939C20.9046 26.4151 21.4057 26.1572 21.9513 26.0527C22.4969 25.9482 23.0624 26.0018 23.5763 26.2068C24.0902 26.4118 24.5295 26.7589 24.8385 27.2043C25.1476 27.6497 25.3125 28.1733 25.3125 28.709C25.3125 29.4273 25.0162 30.1162 24.4888 30.6241C23.9613 31.132 23.2459 31.4173 22.5 31.4173Z" fill="black"/>
</svg>
