<svg width="16" height="14" viewBox="0 0 16 14" fill="none" xmlns="http://www.w3.org/2000/svg">
<path fill-rule="evenodd" clip-rule="evenodd" d="M14 2.5C14 2.91421 13.6642 3.25 13.25 3.25C12.8358 3.25 12.5 2.91421 12.5 2.5C12.5 2.08579 12.8358 1.75 13.25 1.75C13.6642 1.75 14 2.08579 14 2.5ZM15.5 2.5C15.5 3.74264 14.4926 4.75 13.25 4.75C12.0074 4.75 11 3.74264 11 2.5C11 1.25736 12.0074 0.25 13.25 0.25C14.4926 0.25 15.5 1.25736 15.5 2.5ZM14.2197 6.46967C14.3603 6.32902 14.5511 6.25 14.75 6.25C14.9489 6.25 15.1397 6.32902 15.2803 6.46967C15.421 6.61032 15.5 6.80109 15.5 7V11.5C15.5 12.0967 15.2629 12.669 14.841 13.091C14.419 13.5129 13.8467 13.75 13.25 13.75H2.75C2.15326 13.75 1.58097 13.5129 1.15901 13.091C0.737053 12.669 0.5 12.0967 0.5 11.5V4C0.5 3.40326 0.737053 2.83097 1.15901 2.40901C1.58097 1.98705 2.15326 1.75 2.75 1.75H8.75C8.94891 1.75 9.13968 1.82902 9.28033 1.96967C9.42098 2.11032 9.5 2.30109 9.5 2.5C9.5 2.69891 9.42098 2.88968 9.28033 3.03033C9.13968 3.17098 8.94891 3.25 8.75 3.25H3.0575L7.475 7.66C7.6152 7.79742 7.80369 7.87439 8 7.87439C8.19631 7.87439 8.3848 7.79742 8.525 7.66L10.3775 5.8075C10.5187 5.66627 10.7103 5.58693 10.91 5.58693C11.1097 5.58693 11.3013 5.66627 11.4425 5.8075C11.5837 5.94873 11.6631 6.14027 11.6631 6.34C11.6631 6.53973 11.5837 6.73127 11.4425 6.8725L9.59 8.725C9.16812 9.14635 8.59625 9.38302 8 9.38302C7.40375 9.38302 6.83188 9.14635 6.41 8.725L2 4.3075V11.5C2 11.6989 2.07902 11.8897 2.21967 12.0303C2.36032 12.171 2.55109 12.25 2.75 12.25H13.25C13.4489 12.25 13.6397 12.171 13.7803 12.0303C13.921 11.8897 14 11.6989 14 11.5V7C14 6.80109 14.079 6.61032 14.2197 6.46967Z" fill="#333333"/>
</svg>
