<svg width="26" height="24" viewBox="0 0 26 24" fill="none" xmlns="http://www.w3.org/2000/svg">
<path d="M10.3939 13.0303H15.6061C15.9516 13.0303 16.2831 12.893 16.5274 12.6487C16.7718 12.4043 16.9091 12.0729 16.9091 11.7273C16.9091 11.3817 16.7718 11.0503 16.5274 10.8059C16.2831 10.5615 15.9516 10.4243 15.6061 10.4243H10.3939C10.0483 10.4243 9.71692 10.5615 9.47255 10.8059C9.22819 11.0503 9.0909 11.3817 9.0909 11.7273C9.0909 12.0729 9.22819 12.4043 9.47255 12.6487C9.71692 12.893 10.0483 13.0303 10.3939 13.0303ZM22.1212 0H3.87878C2.96204 0.00711243 2.07696 0.336199 1.37827 0.929734C0.679572 1.52327 0.211709 2.34349 0.056464 3.24701C-0.0987808 4.15054 0.0684699 5.07988 0.528979 5.87259C0.989488 6.6653 1.71396 7.27095 2.57574 7.58365V19.5455C2.57574 20.5822 2.98759 21.5765 3.72069 22.3096C4.45379 23.0427 5.44808 23.4546 6.48484 23.4546H19.5152C20.5519 23.4546 21.5462 23.0427 22.2793 22.3096C23.0124 21.5765 23.4243 20.5822 23.4243 19.5455V7.58365C24.286 7.27095 25.0105 6.6653 25.471 5.87259C25.9315 5.07988 26.0988 4.15054 25.9435 3.24701C25.7883 2.34349 25.3204 1.52327 24.6217 0.929734C23.923 0.336199 23.038 0.00711243 22.1212 0ZM20.8182 19.5455C20.8182 19.8911 20.6809 20.2225 20.4365 20.4669C20.1922 20.7112 19.8607 20.8485 19.5152 20.8485H6.48484C6.13925 20.8485 5.80782 20.7112 5.56346 20.4669C5.31909 20.2225 5.18181 19.8911 5.18181 19.5455V7.81819H20.8182V19.5455ZM22.1212 5.21213H3.87878C3.53319 5.21213 3.20176 5.07484 2.95739 4.83048C2.71303 4.58611 2.57574 4.25468 2.57574 3.9091C2.57574 3.56351 2.71303 3.23208 2.95739 2.98771C3.20176 2.74335 3.53319 2.60606 3.87878 2.60606H22.1212C22.4668 2.60606 22.7982 2.74335 23.0426 2.98771C23.287 3.23208 23.4243 3.56351 23.4243 3.9091C23.4243 4.25468 23.287 4.58611 23.0426 4.83048C22.7982 5.07484 22.4668 5.21213 22.1212 5.21213Z" fill="#ADADAD"/>
</svg>
