<svg width="15" height="14" viewBox="0 0 15 14" fill="none" xmlns="http://www.w3.org/2000/svg">
<path d="M5.9965 7.77778H9.0035C9.20287 7.77778 9.39408 7.69583 9.53506 7.54997C9.67604 7.40411 9.75525 7.20628 9.75525 7C9.75525 6.79372 9.67604 6.59589 9.53506 6.45003C9.39408 6.30417 9.20287 6.22222 9.0035 6.22222H5.9965C5.79712 6.22222 5.60591 6.30417 5.46493 6.45003C5.32395 6.59589 5.24475 6.79372 5.24475 7C5.24475 7.20628 5.32395 7.40411 5.46493 7.54997C5.60591 7.69583 5.79712 7.77778 5.9965 7.77778ZM12.7622 0H2.23776C1.70887 0.0042454 1.19825 0.200677 0.795154 0.554957C0.392061 0.909236 0.12214 1.39882 0.0325754 1.93814C-0.0569889 2.47745 0.0395019 3.03218 0.30518 3.50534C0.570858 3.97851 0.988822 4.34002 1.48601 4.52667V11.6667C1.48601 12.2855 1.72361 12.879 2.14655 13.3166C2.56949 13.7542 3.14312 14 3.74125 14H11.2587C11.8569 14 12.4305 13.7542 12.8534 13.3166C13.2764 12.879 13.514 12.2855 13.514 11.6667V4.52667C14.0112 4.34002 14.4291 3.97851 14.6948 3.50534C14.9605 3.03218 15.057 2.47745 14.9674 1.93814C14.8779 1.39882 14.6079 0.909236 14.2048 0.554957C13.8018 0.200677 13.2911 0.0042454 12.7622 0ZM12.0105 11.6667C12.0105 11.8729 11.9313 12.0708 11.7903 12.2166C11.6493 12.3625 11.4581 12.4444 11.2587 12.4444H3.74125C3.54188 12.4444 3.35067 12.3625 3.20969 12.2166C3.06871 12.0708 2.9895 11.8729 2.9895 11.6667V4.66667H12.0105V11.6667ZM12.7622 3.11111H2.23776C2.03838 3.11111 1.84717 3.02917 1.70619 2.88331C1.56521 2.73744 1.48601 2.53961 1.48601 2.33333C1.48601 2.12705 1.56521 1.92922 1.70619 1.78336C1.84717 1.6375 2.03838 1.55556 2.23776 1.55556H12.7622C12.9616 1.55556 13.1528 1.6375 13.2938 1.78336C13.4348 1.92922 13.514 2.12705 13.514 2.33333C13.514 2.53961 13.4348 2.73744 13.2938 2.88331C13.1528 3.02917 12.9616 3.11111 12.7622 3.11111Z" fill="#333333"/>
</svg>
