<svg width="17" height="16" viewBox="0 0 17 16" fill="none" xmlns="http://www.w3.org/2000/svg">
<path d="M1 14.5003C0.999937 13.3456 1.3331 12.2153 1.95951 11.2452C2.58592 10.2752 3.47896 9.50644 4.53145 9.03134C5.58394 8.55625 6.75118 8.39496 7.89307 8.56684C9.03496 8.73872 10.103 9.23646 10.969 10.0003" stroke="#333333" stroke-width="2" stroke-linecap="round" stroke-linejoin="round"/>
<path d="M7 8.5C9.07107 8.5 10.75 6.82107 10.75 4.75C10.75 2.67893 9.07107 1 7 1C4.92893 1 3.25 2.67893 3.25 4.75C3.25 6.82107 4.92893 8.5 7 8.5Z" stroke="#333333" stroke-width="2" stroke-linecap="round" stroke-linejoin="round"/>
<path d="M9.25 13L10.75 14.5L13.75 11.5" stroke="#333333" stroke-width="2" stroke-linecap="round" stroke-linejoin="round"/>
<path d="M15.9996 13.7484C15.9996 11.2209 14.4996 8.87344 12.9996 7.74844C13.4927 7.37851 13.8869 6.89275 14.1475 6.33414C14.4081 5.77553 14.527 5.16129 14.4936 4.54579C14.4603 3.93029 14.2757 3.3325 13.9562 2.80534C13.6368 2.27817 13.1923 1.83788 12.6621 1.52344" stroke="#333333" stroke-width="2" stroke-linecap="round" stroke-linejoin="round"/>
</svg>
