<svg width="34" height="31" viewBox="0 0 34 31" fill="none" xmlns="http://www.w3.org/2000/svg">
<path d="M0.333984 30.332V3.66536H20.5007C20.3895 4.22092 20.334 4.77648 20.334 5.33203C20.334 5.88759 20.3895 6.44314 20.5007 6.9987H3.66732L17.0007 15.332L23.084 11.5404C23.4729 11.9015 23.8968 12.2143 24.3556 12.4787C24.8145 12.7431 25.2934 12.972 25.7923 13.1654L17.0007 18.6654L3.66732 10.332V26.9987H30.334V13.4987C30.9729 13.3598 31.5701 13.1654 32.1257 12.9154C32.6812 12.6654 33.1951 12.3598 33.6673 11.9987V30.332H0.333984ZM28.6673 10.332C27.2784 10.332 26.0979 9.84592 25.1257 8.8737C24.1534 7.90148 23.6673 6.72092 23.6673 5.33203C23.6673 3.94314 24.1534 2.76259 25.1257 1.79036C26.0979 0.818142 27.2784 0.332031 28.6673 0.332031C30.0562 0.332031 31.2368 0.818142 32.209 1.79036C33.1812 2.76259 33.6673 3.94314 33.6673 5.33203C33.6673 6.72092 33.1812 7.90148 32.209 8.8737C31.2368 9.84592 30.0562 10.332 28.6673 10.332Z" fill="white"/>
</svg>
