<svg width="21" height="16" viewBox="0 0 21 16" fill="none" xmlns="http://www.w3.org/2000/svg">
<path d="M2 16C1.45 16 0.979333 15.8043 0.588 15.413C0.196667 15.0217 0.000666667 14.5507 0 14V2C0 1.45 0.196 0.979333 0.588 0.588C0.98 0.196666 1.45067 0.000666667 2 0H7.175C7.44167 0 7.696 0.0500001 7.938 0.15C8.18 0.25 8.39233 0.391666 8.575 0.575L10 2H18C18.55 2 19.021 2.196 19.413 2.588C19.805 2.98 20.0007 3.45067 20 4H9.175L7.175 2H2V14L3.975 7.425C4.10833 6.99167 4.35433 6.646 4.713 6.388C5.07167 6.13 5.46733 6.00067 5.9 6H18.8C19.4833 6 20.021 6.271 20.413 6.813C20.805 7.355 20.909 7.94233 20.725 8.575L18.925 14.575C18.7917 15.0083 18.546 15.3543 18.188 15.613C17.83 15.8717 17.434 16.0007 17 16H2ZM4.1 14H17L18.8 8H5.9L4.1 14Z" fill="#333333"/>
</svg>
