<svg width="311" height="240" viewBox="0 0 311 240" fill="none" xmlns="http://www.w3.org/2000/svg">
<g clip-path="url(#clip0_11219_3574)">
<path d="M277.923 121.204C284.187 117.979 291.563 117.56 298.516 118.706C302.252 119.322 306.147 120.438 308.69 123.238C311.232 126.038 311.714 130.966 308.795 133.372C307.057 134.804 304.634 135.021 302.38 134.996C296.937 134.932 290.897 133.976 286.547 137.244C284.066 139.109 282.414 142.209 279.447 143.125C276.545 144.022 273.269 142.313 271.73 139.7C270.192 137.086 270.14 133.819 270.858 130.873C270.858 130.873 271.612 124.452 277.923 121.204Z" fill="#F19700"/>
<path d="M263.571 93.5615C267.401 99.02 274.846 97.2129 278.298 93.8813C281.749 90.5497 283.208 85.7206 284.536 81.116C287.57 70.5945 290.629 59.5572 288.374 48.8431C287.699 45.6399 286.499 42.4456 284.243 40.0692C281.987 37.6929 278.518 36.2792 275.346 37.1149C271.593 38.1046 269.26 41.7722 267.574 45.262C262.618 55.5191 259.994 66.8897 259.955 78.2765C259.937 83.5937 260.565 89.1712 263.571 93.5615Z" fill="#F19700"/>
<path d="M253.053 101.394C257.212 96.4686 258.001 89.2862 256.151 83.1165C254.3 76.9468 250.119 71.6986 245.301 67.4137C239.652 62.39 233.011 58.4803 225.873 55.9762C223.063 54.9905 220.1 54.2131 217.135 54.495C214.171 54.7769 211.186 56.2899 209.803 58.9211C207.759 62.8118 209.719 67.5314 211.839 71.3815C215.574 78.1651 219.846 84.6545 224.599 90.7701C228.424 95.6905 232.805 100.543 238.634 102.767C244.463 104.99 250.518 104.729 253.608 100.695" fill="#F19700"/>
<path d="M263.312 175.9C263.383 175.904 263.499 175.02 263.659 173.42C263.835 171.614 264.056 169.348 264.318 166.651C264.634 163.803 265.052 160.413 265.844 156.723C266.635 153.041 267.872 149.051 269.461 145.005C271.107 140.982 273.113 137.326 275.458 134.401C277.786 131.464 280.495 129.338 283.04 128.112C285.577 126.861 287.853 126.354 289.425 126.128C291.012 125.966 291.9 125.84 291.901 125.77C291.901 125.699 291.011 125.688 289.382 125.732C287.768 125.839 285.398 126.247 282.724 127.46C280.042 128.647 277.169 130.806 274.726 133.804C272.264 136.79 270.184 140.526 268.51 144.621C266.893 148.739 265.674 152.769 264.919 156.531C264.166 160.286 263.821 163.712 263.596 166.585C263.381 169.46 263.299 171.787 263.26 173.396C263.224 175.005 263.242 175.896 263.312 175.9Z" fill="#17282F"/>
<path d="M263.78 170.692C263.815 170.69 263.838 170.294 263.847 169.541C263.845 168.676 263.841 167.587 263.838 166.25C263.83 163.394 263.831 159.26 263.985 154.156C264.238 143.949 265.119 132.963 266.82 117.474C268.432 102.911 270.594 85.9613 272.876 74.9416C273.366 72.4355 273.859 70.1801 274.323 68.2054C274.766 66.2259 275.144 64.5195 275.508 63.139C275.821 61.839 276.076 60.7802 276.279 59.9399C276.445 59.205 276.515 58.8143 276.481 58.8041C276.447 58.7947 276.31 59.1658 276.08 59.8831C275.829 60.7113 275.512 61.7551 275.123 63.0369C274.698 64.4053 274.263 66.1008 273.765 68.0715C273.248 70.0382 272.704 72.2881 272.168 74.7908C269.909 84.7762 267.519 98.7313 265.801 114.257C264.097 129.777 263.329 143.909 263.261 154.143C263.2 159.259 263.309 163.402 263.439 166.26C263.521 167.596 263.588 168.685 263.641 169.549C263.698 170.301 263.744 170.693 263.78 170.692Z" fill="#17282F"/>
<path d="M263.848 143.436C263.919 143.433 263.907 142.212 263.823 139.998C263.697 137.788 263.393 134.595 262.769 130.684C262.107 126.782 261.184 122.148 259.732 117.113C259.104 114.811 257.625 109.297 254.045 101.056C249.328 89.8892 242.918 80.7604 237.342 75.1059C236.035 73.605 234.578 72.5227 233.413 71.4619C232.81 70.9535 232.278 70.4465 231.735 70.0442C231.189 69.669 230.681 69.3195 230.21 68.9957C228.376 67.7436 227.348 67.0831 227.31 67.1426C227.145 67.3657 231.42 69.8759 236.818 75.6062C242.194 81.3236 248.424 90.3902 253.103 101.462C255.712 107.467 257.532 112.824 258.823 117.372C260.314 122.358 261.305 126.945 262.054 130.808C262.765 134.68 263.177 137.842 263.426 140.031C263.63 142.223 263.778 143.438 263.848 143.436Z" fill="#17282F"/>
<path d="M237.445 191.516L240.182 228.934H288.358L291.095 191.516H237.445Z" fill="#17282F"/>
<path d="M296.843 176.768H232.791V191.516H296.843V176.768Z" fill="#17282F"/>
<path d="M232.791 227.502V231.59H235.801H295.785V227.502H232.791Z" fill="#33535F"/>
<path d="M238.751 238.785L235.801 231.59H293.49L290.049 238.785H238.751Z" fill="#33535F"/>
<path d="M290.201 203.745C290.212 203.754 290.135 203.871 289.976 204.089C289.785 204.342 289.548 204.655 289.256 205.041C288.572 205.915 287.632 207.115 286.45 208.625L286.325 208.785L286.205 208.618C284.441 206.184 282.084 202.932 279.31 199.103H279.706C277.655 202.001 275.371 205.228 272.918 208.694L272.705 208.995L272.467 208.712C269.961 205.738 267.241 202.508 264.416 199.155L264.88 199.149C264.741 199.324 264.59 199.514 264.437 199.704C261.94 202.828 259.524 205.85 257.239 208.709L256.999 209.009L256.777 208.697C254.333 205.246 252.05 202.023 249.986 199.108L250.381 199.127C247.033 202.932 244.195 206.159 242.016 208.636L241.868 208.805L241.755 208.615C240.652 206.767 239.773 205.293 239.136 204.225C238.862 203.748 238.64 203.363 238.464 203.056C238.316 202.789 238.245 202.647 238.258 202.639C238.271 202.63 238.367 202.757 238.539 203.009C238.735 203.304 238.979 203.676 239.282 204.134C239.951 205.183 240.874 206.63 242.032 208.444L241.77 208.424C243.914 205.917 246.707 202.651 250 198.799L250.208 198.556L250.396 198.818C252.479 201.72 254.783 204.928 257.248 208.363L256.787 208.351C259.067 205.487 261.478 202.46 263.968 199.333C264.12 199.142 264.271 198.953 264.411 198.777L264.64 198.49L264.876 198.771C267.693 202.131 270.406 205.368 272.904 208.347L272.453 208.365C274.931 204.917 277.238 201.706 279.31 198.822L279.511 198.542L279.707 198.822C282.422 202.693 284.729 205.98 286.456 208.44L286.211 208.433C287.44 206.962 288.418 205.792 289.13 204.94C289.447 204.575 289.705 204.277 289.912 204.038C290.092 203.836 290.19 203.736 290.201 203.745Z" fill="#F5F5F5"/>
<path d="M291.765 191.269C291.765 191.434 279.694 191.569 264.807 191.569C249.914 191.569 237.845 191.435 237.845 191.269C237.845 191.104 249.914 190.97 264.807 190.97C279.695 190.97 291.765 191.104 291.765 191.269Z" fill="#17282F"/>
<path d="M294.2 231.993C294.2 232.159 281.081 232.292 264.901 232.292C248.715 232.292 235.599 232.159 235.599 231.993C235.599 231.828 248.715 231.694 264.901 231.694C281.08 231.694 294.2 231.828 294.2 231.993Z" fill="#33535F"/>
<path d="M120.445 90.0088L115.026 92.9104L103.031 102.125C103.031 102.125 66.2869 106.993 64.8762 108.049C63.4648 109.105 45.191 117.764 42.7213 129.38C40.2516 140.998 35.1699 216.796 35.1699 216.796L41.8378 239.191L175.661 239.399L207.046 238.954C207.046 238.954 219.106 210.851 219.106 203.106C219.106 195.361 215.578 137.277 215.578 137.277L177.943 110.798L120.445 90.0088Z" fill="#B7C0C9"/>
<path d="M102.685 101.578C102.694 101.585 102.63 101.692 102.498 101.891C102.341 102.12 102.147 102.403 101.91 102.748C101.381 103.478 100.668 104.571 99.8303 105.945C99.4271 106.641 98.963 107.392 98.5382 108.237C98.0815 109.066 97.6499 109.98 97.202 110.944C96.3313 112.884 95.4898 115.068 94.7696 117.414C93.3508 122.119 92.6217 126.523 92.1318 129.706C91.9076 131.263 91.7239 132.542 91.5878 133.485C91.5261 133.899 91.4753 134.239 91.4339 134.513C91.3946 134.748 91.3689 134.87 91.3567 134.869C91.3445 134.867 91.3472 134.742 91.3635 134.505C91.3872 134.228 91.4156 133.886 91.4516 133.469C91.5329 132.57 91.6772 131.272 91.8845 129.671C92.3121 126.474 93.0038 122.046 94.4315 117.312C95.1558 114.951 96.0129 112.754 96.9059 110.809C97.3653 109.842 97.8091 108.927 98.28 108.099C98.7184 107.254 99.1981 106.507 99.6168 105.814C100.485 104.45 101.234 103.374 101.798 102.667C102.057 102.337 102.269 102.066 102.441 101.848C102.591 101.663 102.675 101.57 102.685 101.578Z" fill="#263238"/>
<g opacity="0.3">
<path d="M103.52 123.859C103.297 123.146 103.008 122.34 102.313 122.061C101.767 121.842 101.987 122.193 101.442 122.417C96.3598 124.508 93.9063 129.197 91.7544 134.479L91.877 134.353C91.5579 135.162 91.8926 136.329 92.7091 136.804C93.8548 137.47 95.3278 137.11 96.5054 136.503C97.683 135.894 98.761 135.05 100.046 134.722C102.829 134.011 105.596 135.912 107.56 138.004C109.524 140.096 111.292 142.588 113.971 143.625C109.319 137.744 105.758 131.009 103.52 123.859Z" fill="black"/>
</g>
<path d="M91.3564 134.869C91.3564 134.869 91.9608 133.255 93.507 130.569C94.2889 129.233 95.3134 127.629 96.7342 125.941C97.4592 125.112 98.277 124.254 99.2656 123.476C100.26 122.72 101.443 122.02 102.843 121.763L102.948 121.744L102.987 121.845C103.839 124.058 104.733 126.473 105.764 129.014C106.799 131.553 107.989 134.222 109.552 136.842C111.106 139.464 113.042 142.029 115.379 144.357C117.71 146.692 120.422 148.789 123.359 150.671C124.338 151.25 125.289 151.862 126.269 152.403C127.258 152.928 128.237 153.449 129.206 153.964L129.03 153.975C130.692 152.83 132.324 151.706 133.921 150.606C134.72 150.056 135.51 149.512 136.292 148.974C137.078 148.442 137.843 147.907 138.567 147.338C141.475 145.075 143.99 142.621 146.159 140.219L146.17 140.207L146.182 140.198C149.197 137.886 151.535 135.24 153.142 132.619C154.785 130.012 155.726 127.468 156.28 125.339C156.83 123.203 157.005 121.47 157.078 120.293C157.12 119.705 157.108 119.252 157.125 118.947C157.135 118.642 157.152 118.484 157.152 118.484C157.152 118.484 157.166 118.641 157.172 118.946C157.171 119.251 157.197 119.706 157.17 120.298C157.124 121.48 156.977 123.223 156.449 125.381C155.916 127.531 154.989 130.104 153.35 132.746C151.746 135.402 149.4 138.088 146.364 140.435L146.387 140.414C144.21 142.845 141.698 145.312 138.773 147.601C138.043 148.177 137.273 148.717 136.49 149.25C135.71 149.789 134.919 150.335 134.121 150.887C132.522 151.99 130.889 153.118 129.227 154.265L129.142 154.325L129.052 154.277C128.078 153.76 127.094 153.238 126.1 152.71C125.115 152.167 124.157 151.552 123.173 150.968C120.216 149.074 117.485 146.96 115.135 144.601C112.78 142.249 110.83 139.656 109.271 137.009C107.702 134.364 106.515 131.676 105.488 129.126C104.465 126.573 103.583 124.154 102.746 121.938L102.889 122.019C101.552 122.256 100.394 122.926 99.4126 123.662C98.4363 124.419 97.6212 125.26 96.8955 126.076C95.4719 127.736 94.4332 129.322 93.6358 130.642C92.8423 131.966 92.2888 133.032 91.9215 133.759C91.7467 134.112 91.6105 134.387 91.5103 134.589C91.4134 134.777 91.3625 134.871 91.3564 134.869Z" fill="#263238"/>
<path d="M167.09 118.223C167.09 118.223 167.315 122.168 166.6 128.534C166.243 131.713 165.6 135.484 164.534 139.599C163.476 143.715 161.967 148.16 160.049 152.7L159.79 153.311L159.71 152.648C159.663 152.253 159.625 151.825 159.561 151.398C159.224 148.901 158.634 146.5 157.853 144.256C157.463 143.134 157.025 142.05 156.549 141.011C156.312 140.491 156.062 139.984 155.806 139.486C155.545 138.988 155.303 138.496 154.977 138.076C154.659 137.655 154.271 137.278 153.814 137.107C153.357 136.932 152.855 137.046 152.48 137.358C152.1 137.663 151.784 138.081 151.446 138.453C151.114 138.832 150.786 139.205 150.464 139.573C149.177 141.038 147.977 142.404 146.879 143.653C144.693 146.126 142.918 148.134 141.67 149.546C141.063 150.221 140.584 150.753 140.24 151.136C140.085 151.303 139.96 151.437 139.861 151.543C139.775 151.634 139.728 151.679 139.723 151.675C139.718 151.671 139.756 151.619 139.834 151.52C139.926 151.407 140.042 151.266 140.187 151.089C140.519 150.696 140.981 150.149 141.566 149.455C142.794 148.026 144.54 145.993 146.691 143.489C147.779 142.231 148.968 140.856 150.244 139.38C150.563 139.011 150.889 138.636 151.219 138.254C151.557 137.88 151.857 137.467 152.288 137.114C152.704 136.752 153.366 136.588 153.922 136.807C154.476 137.014 154.894 137.434 155.236 137.878C155.585 138.327 155.837 138.838 156.1 139.333C156.36 139.834 156.614 140.345 156.854 140.87C157.338 141.917 157.783 143.01 158.179 144.142C158.972 146.405 159.57 148.829 159.91 151.351C159.975 151.781 160.013 152.213 160.061 152.613L159.723 152.562C161.637 148.037 163.15 143.613 164.222 139.517C165.301 135.422 165.968 131.669 166.356 128.503C166.748 125.337 166.906 122.762 166.977 120.984C167.023 120.095 167.023 119.404 167.046 118.936C167.055 118.718 167.063 118.543 167.069 118.404C167.077 118.285 167.084 118.223 167.09 118.223Z" fill="#263238"/>
<path d="M116.554 99.5458C116.558 99.5505 116.524 99.5952 116.452 99.6797C116.365 99.7777 116.259 99.8981 116.128 100.045C115.826 100.351 115.438 100.851 114.937 101.492C113.97 102.799 112.749 104.834 111.69 107.544C110.607 110.241 109.704 113.613 109.257 117.43C108.836 121.243 108.882 125.518 109.799 129.857C110.231 132.032 110.897 134.1 111.694 136.03C112.463 137.974 113.458 139.737 114.478 141.361C116.579 144.581 119.019 147.092 121.255 148.947C122.349 149.911 123.46 150.626 124.388 151.317C125.374 151.923 126.206 152.477 126.914 152.88C127.61 153.262 128.16 153.563 128.562 153.784C128.734 153.882 128.873 153.963 128.987 154.028C129.082 154.085 129.129 154.116 129.127 154.122C129.124 154.127 129.071 154.106 128.971 154.06C128.853 154.004 128.708 153.934 128.53 153.848C128.119 153.641 127.557 153.358 126.847 153C126.125 152.614 125.279 152.075 124.279 151.482C123.335 150.804 122.207 150.097 121.095 149.139C118.823 147.297 116.342 144.781 114.204 141.538C113.166 139.903 112.154 138.124 111.373 136.162C110.565 134.214 109.889 132.124 109.453 129.93C108.527 125.548 108.491 121.235 108.933 117.393C109.402 113.548 110.337 110.157 111.457 107.452C112.554 104.734 113.819 102.702 114.827 101.41C115.348 100.777 115.755 100.289 116.075 99.9974C116.216 99.8595 116.331 99.7466 116.425 99.6547C116.507 99.5776 116.55 99.5411 116.554 99.5458Z" fill="#263238"/>
<path d="M58.9053 164.501C58.9134 164.497 58.9575 164.56 59.0395 164.695C59.1357 164.862 59.2536 165.065 59.402 165.321L59.3024 165.356C58.8186 163.086 57.5028 156.119 56.0094 147.882C55.1096 142.807 54.2959 138.216 53.6962 134.833C53.4232 133.197 53.1996 131.856 53.0349 130.872C52.9692 130.435 52.9157 130.078 52.873 129.792C52.8398 129.545 52.8283 129.413 52.8398 129.411C52.8513 129.409 52.8865 129.536 52.9428 129.78C53.0031 130.062 53.0783 130.416 53.1704 130.848C53.3622 131.827 53.623 133.161 53.9422 134.789C54.5682 138.168 55.4179 142.752 56.357 147.82C57.8503 156.057 59.0645 163.043 59.4081 165.338L59.4595 165.683L59.3078 165.372C59.1784 165.106 59.0754 164.895 58.9907 164.722C58.925 164.578 58.8972 164.506 58.9053 164.501Z" fill="#263238"/>
<path d="M57.2731 163.114C57.185 163.155 55.4782 159.73 53.4625 155.463C51.4454 151.195 49.8823 147.703 49.9703 147.662C50.0584 147.62 51.7645 151.045 53.7816 155.313C55.798 159.58 57.3612 163.072 57.2731 163.114Z" fill="#263238"/>
<g opacity="0.3">
<path d="M56.5796 237.442C60.8279 239.573 70.6728 235.812 74.2531 231.127C77.8333 226.441 78.8693 220.35 79.6464 214.509C80.8179 205.706 81.6534 196.859 82.1507 187.994C89.4385 193.317 98.5741 196.069 107.596 195.661C113.344 195.401 119.895 193.123 121.673 187.663C123.431 182.262 119.645 176.71 115.712 172.605C111.967 168.698 107.878 165.119 103.507 161.925C100.637 159.827 97.4954 157.839 93.9585 157.454C90.1439 157.038 86.2852 158.598 83.3852 161.105C80.4853 163.613 78.4587 166.993 76.9741 170.523C72.4419 181.302 72.6865 193.372 71.761 205.025C70.8361 216.677 69.5969 228.748 59.2499 236.334" fill="black"/>
</g>
<path d="M56.8541 237.488C56.8513 237.48 56.9509 237.432 57.1447 237.347C57.3609 237.253 57.6441 237.132 57.9998 236.979C58.7092 236.581 59.7594 235.999 60.8998 234.99C63.2102 233.029 66.0594 229.686 68.7283 225.253L68.7093 225.309C69.3293 220.676 70.0522 215.273 70.8213 209.524C72.0632 200.412 73.165 192.16 74.0499 186.2C74.598 183.259 75.0432 180.87 75.3569 179.183C75.5147 178.378 75.6394 177.742 75.7295 177.279C75.7722 177.079 75.8074 176.917 75.8352 176.785C75.861 176.675 75.8772 176.618 75.8833 176.619C75.8894 176.62 75.8854 176.679 75.8711 176.792C75.8522 176.925 75.8284 177.089 75.8 177.291C75.7255 177.757 75.6225 178.396 75.4924 179.206C75.2051 180.896 74.7979 183.291 74.2965 186.239C73.4936 192.235 72.3898 200.472 71.1709 209.574C70.3863 215.32 69.6491 220.72 69.0169 225.351L69.0129 225.382L68.998 225.407C66.2823 229.861 63.3871 233.187 61.0183 235.129C59.8516 236.126 58.7722 236.693 58.0432 237.065C57.661 237.218 57.3622 237.32 57.163 237.393C56.9611 237.464 56.8568 237.496 56.8541 237.488Z" fill="#263238"/>
<path d="M122.072 238.955C122.066 238.956 122.045 238.884 122.009 238.742C121.97 238.581 121.92 238.372 121.857 238.108C121.74 237.548 121.514 236.731 121.334 235.658C120.934 233.519 120.521 230.385 120.402 226.492C120.291 222.6 120.477 217.953 121.133 212.848C121.756 207.737 122.793 202.172 123.998 196.363C125.154 190.538 126.61 185.064 127.789 180.066C128.986 175.072 129.756 170.501 129.962 166.626C130.164 162.751 129.921 159.606 129.625 157.458C129.509 156.378 129.323 155.553 129.248 154.986C129.207 154.718 129.175 154.506 129.149 154.342C129.129 154.197 129.122 154.122 129.128 154.121C129.134 154.119 129.153 154.192 129.185 154.336C129.219 154.498 129.262 154.708 129.318 154.973C129.416 155.537 129.624 156.359 129.761 157.439C130.099 159.588 130.383 162.744 130.211 166.64C130.036 170.535 129.286 175.134 128.106 180.141C126.942 185.154 125.499 190.615 124.344 196.435C123.141 202.241 122.095 207.794 121.456 212.889C120.785 217.979 120.574 222.608 120.653 226.487C120.74 230.368 121.114 233.494 121.471 235.635C121.63 236.71 121.833 237.53 121.928 238.094C121.977 238.361 122.015 238.572 122.045 238.735C122.069 238.878 122.078 238.954 122.072 238.955Z" fill="#263238"/>
<path d="M133.474 162.723C133.389 162.667 134.558 160.806 135.856 158.434C137.161 156.063 138.102 154.079 138.196 154.121C138.239 154.139 138.059 154.661 137.705 155.48C137.352 156.298 136.82 157.41 136.165 158.603C135.51 159.796 134.858 160.842 134.358 161.579C133.857 162.316 133.513 162.749 133.474 162.723Z" fill="#263238"/>
<g opacity="0.3">
<path d="M135.658 159.916C139.19 155.792 143.02 151.922 147.106 148.344C148.224 147.365 149.439 146.372 150.906 146.129C152.697 145.832 154.517 146.753 155.758 148.075C157 149.397 157.77 151.08 158.52 152.73C160.295 148.372 158.452 143.467 156.624 139.13C156.029 137.72 154.996 136.045 153.479 136.272C152.67 136.393 152.062 137.049 151.527 137.667C145.658 144.465 140.226 151.638 135.276 159.128" fill="black"/>
</g>
<g opacity="0.3">
<path d="M195.231 127.713L195.485 125.571C192.904 125.818 189.731 126.12 187.67 127.688C185.265 129.517 184.318 132.634 183.508 135.541C181.666 142.156 186.892 176.196 186.626 183.057C188.914 182.088 190.521 167.48 190.931 165.034C191.933 159.075 189.906 155.356 190.519 153.697C191.133 152.038 191.117 150.226 191.167 148.459C191.391 140.562 192.177 135.002 195.231 127.713Z" fill="black"/>
</g>
<path d="M161.553 18.4612C158.273 14.4028 159.347 7.92348 163.102 4.29779C166.856 0.672098 172.566 -0.371061 177.718 0.492939C185.176 1.74364 191.888 6.79852 195.14 13.6111C196.896 17.2929 197.854 21.6447 201.08 24.1502C203.914 26.3521 207.812 26.5454 211.038 28.122C215.363 30.2354 218.151 34.7534 219.141 39.4561C220.131 44.1587 219.536 49.0514 218.539 53.7527C217.623 58.0672 216.403 62.7293 218.26 66.7309C220.07 70.6331 224.302 72.76 227.086 76.0416C232.327 82.2167 231.138 92.7246 224.651 97.5787C222.582 99.1262 219.968 100.303 218.979 102.687C218.077 104.864 218.847 107.333 218.8 109.688C218.68 115.75 211.981 120.738 206.122 119.125C203.164 118.311 200.439 116.132 197.399 116.549C194.379 116.962 192.363 119.745 189.909 121.549C185.082 125.097 177.689 124.552 173.437 120.335C171.657 118.57 170.228 116.165 167.801 115.523C165.38 114.883 162.833 116.27 160.352 115.932C157.104 115.491 154.97 112.272 154.01 109.145C153.051 106.017 152.793 102.627 151.172 99.784C149.049 96.0616 145.007 93.9537 141.611 91.334C134.116 85.5523 129.306 76.4384 128.769 67.0007C128.232 57.5629 131.977 47.9643 138.768 41.3727" fill="#263238"/>
<path d="M116.107 99.561C109.626 106.979 107.069 117.631 109.483 127.174C111.896 136.716 119.896 150.66 129.128 154.121C135.116 149.741 142.813 143.624 148.397 138.742C152.01 135.582 153.927 130.964 155.717 126.515C156.75 123.948 157.798 121.174 157.15 118.485C156.672 116.505 155.329 114.854 153.914 113.386C144.829 103.959 130.984 99.3508 118.046 101.449" fill="#EF9D78"/>
<path d="M143.53 30.8797C146.964 23.9312 154.804 20.3291 162.327 22.2424L185.445 28.122C196.997 31.837 206.042 49.674 199.231 65.2997C193.853 77.6384 188.343 93.1424 182.817 101.657C171.705 118.78 156.514 114.868 156.514 114.868L148.315 133.117L114.796 101.754L143.53 30.8797Z" fill="#EF9D78"/>
<path d="M182.555 70.1255C182.991 69.9619 184.124 72.1185 186.635 73.3239C189.126 74.5631 191.592 74.1656 191.715 74.6037C191.783 74.8038 191.223 75.2088 190.139 75.4041C189.069 75.6029 187.45 75.5164 185.89 74.7551C184.332 73.9919 183.296 72.7831 182.827 71.8305C182.342 70.8678 182.346 70.1931 182.555 70.1255Z" fill="#263238"/>
<path d="M156.379 58.2342C156.871 58.1436 157.991 60.5429 160.689 62.208C163.365 63.9056 166.115 63.9273 166.225 64.3958C166.287 64.6114 165.646 64.9298 164.432 64.9393C163.237 64.9569 161.452 64.5878 159.777 63.5399C158.103 62.49 157.034 61.0763 156.573 60.0224C156.1 58.9562 156.146 58.2666 156.379 58.2342Z" fill="#263238"/>
<path d="M167.473 83.7385C167.525 83.5884 169.229 84.0164 171.941 84.8236C172.621 85.044 173.294 85.1873 173.6 84.7932C173.962 84.3923 174.001 83.5715 174.02 82.6771C174.107 80.8355 174.198 78.9067 174.292 76.884C174.747 68.6652 175.383 62.0236 175.714 62.0452C176.046 62.0662 175.947 68.7449 175.493 76.9638C175.365 78.9831 175.246 80.9092 175.127 82.7508C175.046 83.5972 175.097 84.6208 174.333 85.4476C173.942 85.8553 173.308 85.9959 172.842 85.9235C172.369 85.8661 171.999 85.7112 171.669 85.5882C169.025 84.5836 167.418 83.8873 167.473 83.7385Z" fill="#263238"/>
<path d="M156.485 114.913C156.485 114.913 143.098 109.904 134.072 97.0837C134.072 97.0837 134.579 112.738 154.434 119.5L156.485 114.913Z" fill="#D37A57"/>
<path d="M158.478 49.5667C158.904 48.8839 161.552 49.8094 164.831 50.0994C168.106 50.455 170.883 50.0656 171.166 50.8187C171.288 51.1764 170.691 51.7767 169.497 52.2729C168.312 52.7698 166.518 53.1011 164.553 52.9091C162.589 52.713 160.895 52.0377 159.83 51.319C158.756 50.5997 158.288 49.8939 158.478 49.5667Z" fill="#263238"/>
<path d="M188.016 57.0078C188.873 57.0024 189.927 59.105 191.753 61.1182C193.518 63.1856 195.477 64.51 195.352 65.347C195.273 65.7344 194.562 65.8993 193.439 65.5674C192.327 65.2462 190.842 64.3613 189.607 62.9591C188.375 61.5563 187.695 59.9804 187.528 58.8487C187.352 57.7042 187.616 57.0308 188.016 57.0078Z" fill="#263238"/>
<path d="M161.597 90.8033C161.597 90.8033 163.171 89.9832 162.441 86.9714C161.711 83.9596 157.871 81.229 155.44 83.7067C155.44 83.7067 152.985 83.8953 153.951 86.7199C154.917 89.5445 160.511 93.5318 161.553 91.2616" fill="#D37A57"/>
<path d="M160.683 93.104C160.236 93.0269 160.917 90.0868 158.883 87.4143C156.855 84.7358 153.638 84.3356 153.711 83.9191C153.713 83.7258 154.543 83.5108 155.877 83.7839C157.187 84.0415 158.988 84.9001 160.233 86.5348C161.472 88.1722 161.734 90.0327 161.553 91.2624C161.379 92.5165 160.88 93.1676 160.683 93.104Z" fill="#263238"/>
<path d="M123.762 21.2737C120.167 24.0239 118.03 28.571 118.209 33.0871C118.309 35.6149 118.928 38.599 117.061 40.3108C115.161 42.053 112.171 41.118 109.59 41.1315C105.1 41.1551 100.93 44.885 100.417 49.3354C100.233 50.9323 100.441 52.6603 99.6249 54.0455C98.7753 55.4875 97.0712 56.1339 95.6375 57.0012C92.0756 59.1558 89.801 63.2784 89.8809 67.4335C89.9616 71.5892 92.394 75.6205 96.0373 77.6358C97.6946 78.5532 99.6351 79.1259 100.846 80.5814C102.234 82.2506 102.287 84.6141 102.967 86.6747C104.27 90.6242 108.262 93.5279 112.429 93.5576C116.597 93.5881 120.63 90.7425 121.992 86.8126" fill="#263238"/>
<path d="M161.231 14.8045C159.874 18.7554 160.37 23.2978 162.548 26.8633C164.726 30.4295 168.546 32.9505 172.687 33.5563C175.9 34.0268 179.734 33.6212 181.808 36.1145C183.989 38.7369 182.696 42.919 184.421 45.8605C186.887 50.0642 191.089 53.4181 195.076 56.2278C198.156 58.3973 194.632 64.4378 195.975 67.952C197.317 71.4668 202.841 79.4875 206.608 79.6309C207.432 76.4865 212.122 62.6801 212.203 59.431C212.284 56.1825 211.551 52.8077 209.536 50.2542C208.432 48.8548 206.977 47.7379 206.021 46.2337C203.956 42.9852 204.649 38.7795 203.98 34.9909C203.116 30.1077 199.728 25.7397 195.208 23.6798C191.447 21.966 187.036 21.776 183.562 19.5376C180.994 17.8833 179.159 15.2358 176.498 13.7363C171.315 10.8144 164.82 13.0407 159.464 15.6333" fill="#263238"/>
<path d="M136.275 54.1029C135.74 53.7466 132.187 56.4305 135.695 58.5716C141.839 62.3217 147.118 49.6517 146.892 45.4412C150.022 44.1222 153.19 42.7816 155.946 40.6919C158.703 38.6029 162.827 31.7619 163.564 28.3032C165.915 29.2537 177.275 29.3396 176.289 28.6595C174.047 27.1113 169.51 23.7905 168.908 21.1918C167.6 15.5467 163.581 10.6372 158.275 9.16134C152.967 7.68551 146.573 10.1011 143.643 15.2303C137.323 13.1474 129.831 15.0207 124.787 19.9438C119.744 24.8668 117.355 32.6421 118.773 39.5095C119.144 41.3085 119.753 43.1859 119.175 44.9687C118.459 47.1787 116.238 48.3699 114.47 49.7998C109.649 53.6993 107.573 60.5903 108.166 66.8114C108.759 73.0324 109.824 75.5075 112.91 77.7561C118.948 82.1551 106.4 93.3919 117.641 97.1893" fill="#263238"/>
<path d="M220.182 97.0507C220.151 97.0054 220.578 96.7722 221.24 96.155C221.888 95.5398 222.827 94.5466 223.503 92.9755C224.195 91.4402 224.668 89.2944 224.138 86.9457C223.609 84.5904 221.828 82.3445 219.441 80.4313C217.123 78.443 214.079 76.6704 211.925 73.5443C209.745 70.4026 209.388 66.1252 210.075 62.0702C210.754 57.9524 212.473 53.9528 213.575 49.6883C214.13 47.558 214.478 45.3439 214.404 43.0954C214.331 40.8617 213.833 38.5807 212.633 36.6478C211.441 34.7109 209.604 33.2669 207.592 32.2906C205.572 31.3049 203.389 30.7269 201.222 30.3551C199.048 29.9927 196.825 29.7886 194.715 29.1098C192.615 28.4844 190.609 27.1046 189.656 25.1326C188.671 23.1997 188.457 21.1479 188.026 19.2907C187.645 17.4147 186.935 15.7205 185.836 14.3238C183.681 11.4918 180.489 9.92264 177.536 9.36827C174.538 8.82472 171.728 9.40816 169.5 10.3337C167.261 11.2835 165.555 12.5586 164.291 13.7133C161.784 16.0815 160.951 17.8731 160.852 17.7994C160.839 17.7919 160.889 17.6824 160.998 17.4749C161.115 17.272 161.264 16.9536 161.523 16.575C162.007 15.7982 162.808 14.6942 164.052 13.4631C165.303 12.2483 167.016 10.9009 169.304 9.87734C171.578 8.88016 174.493 8.221 177.644 8.74968C180.74 9.29052 184.099 10.8867 186.419 13.8742C187.598 15.3324 188.389 17.1997 188.788 19.1177C189.236 21.0188 189.476 23.0192 190.382 24.7546C191.251 26.509 192.985 27.7063 194.975 28.3026C196.967 28.9374 199.143 29.1355 201.367 29.4972C203.592 29.8731 205.851 30.4619 207.98 31.497C210.099 32.5212 212.092 34.0714 213.389 36.1813C214.692 38.2846 215.214 40.7251 215.288 43.067C215.362 45.4217 214.99 47.7311 214.419 49.9039C213.276 54.2557 211.557 58.2215 210.882 62.2048C210.195 66.1421 210.528 70.1924 212.538 73.1373C214.524 76.0957 217.51 77.9089 219.845 79.9526C222.246 81.9267 224.11 84.3213 224.622 86.8389C225.134 89.3349 224.579 91.5531 223.817 93.1202C223.066 94.7238 222.056 95.7074 221.356 96.2909C220.643 96.8757 220.182 97.0507 220.182 97.0507Z" fill="#455A64"/>
<path d="M199.399 56.2285C199.477 56.2603 199.067 57.1959 198.655 58.9672C198.258 60.729 197.892 63.3845 198.415 66.5823C198.67 68.1744 199.145 69.8923 199.949 71.6054C200.725 73.3449 201.912 74.9559 203.269 76.6765C203.925 77.5506 204.593 78.4856 205.077 79.5768C205.575 80.6564 205.822 81.9213 205.716 83.1639C205.518 85.6768 204.28 87.9085 203.356 90.1834C202.389 92.4354 201.847 94.8469 202.731 96.9386C203.558 99.0256 205.234 100.616 206.758 102.135C208.302 103.65 209.796 105.176 210.738 106.958C211.185 107.854 211.494 108.802 211.592 109.738C211.653 110.67 211.618 111.577 211.391 112.4C210.553 115.753 208.207 117.665 206.544 118.429C205.678 118.798 204.961 118.956 204.473 118.999C203.982 119.029 203.728 119.03 203.727 119C203.708 118.893 204.776 118.929 206.392 118.12C207.935 117.301 210.08 115.399 210.779 112.261C211.135 110.718 210.984 108.933 210.087 107.303C209.19 105.668 207.747 104.218 206.184 102.72C204.654 101.213 202.871 99.5921 201.92 97.2529C201.456 96.0962 201.294 94.7766 201.468 93.5069C201.631 92.2332 202.055 91.019 202.535 89.8481C203.492 87.5184 204.671 85.3476 204.85 83.0997C205.089 80.8396 203.891 78.8622 202.614 77.1646C201.302 75.4704 200.048 73.7215 199.28 71.9089C198.473 70.114 198.018 68.3245 197.795 66.6756C197.337 63.3622 197.815 60.6499 198.322 58.882C198.58 57.9937 198.836 57.3203 199.048 56.8829C199.25 56.4401 199.371 56.2163 199.399 56.2285Z" fill="#455A64"/>
<path d="M97.7354 77.4519C97.7225 77.4667 97.5917 77.3701 97.3485 77.1672C97.0998 76.9705 96.7644 76.6386 96.3653 76.1707C95.5834 75.2364 94.5617 73.6585 94.1145 71.368C93.6605 69.1357 93.8347 66.04 95.7759 63.3399C97.6405 60.689 101.169 58.4864 105.308 58.6852L104.933 59.1801C104.175 57.0573 103.602 54.6755 103.791 52.1471C103.938 49.6423 105.137 46.9671 107.416 45.3574C108.524 44.536 109.922 44.0134 111.381 44.0046C112.857 44.0114 114.216 44.5793 115.475 45.16C116.736 45.7408 117.969 46.3959 119.268 46.6176C120.558 46.8481 121.888 46.4844 122.85 45.5582C124.292 44.2108 124.944 42.207 125.071 40.2417C125.23 38.2528 125.036 36.228 125.244 34.2059C125.657 30.1502 127.606 26.5225 130.235 23.9596C132.867 21.352 136.246 19.9458 139.407 19.5152C142.591 19.0872 145.596 19.5814 148.023 20.5962L147.639 20.747C148.708 18.5417 150.58 17.1808 152.303 16.477C154.047 15.7543 155.705 15.6522 156.997 15.7786C158.302 15.9145 159.248 16.31 159.853 16.6061C160.441 16.9448 160.724 17.153 160.711 17.1726C160.668 17.2889 159.513 16.3039 156.97 16.1018C155.72 16.0294 154.133 16.1768 152.487 16.9076C150.859 17.6182 149.132 18.9459 148.181 20.9964L148.062 21.2526L147.798 21.1472C145.448 20.2122 142.555 19.7802 139.51 20.2244C136.481 20.6746 133.288 22.0403 130.804 24.5363C128.318 26.9917 126.485 30.4599 126.109 34.2911C125.914 36.2036 126.112 38.2183 125.953 40.312C125.819 42.3862 125.133 44.6469 123.454 46.2113C122.334 47.3099 120.623 47.7784 119.124 47.4911C117.617 47.2254 116.346 46.5243 115.103 45.9557C113.869 45.3784 112.626 44.8768 111.378 44.8707C110.134 44.8754 108.91 45.3142 107.914 46.047C105.857 47.4938 104.754 49.8721 104.595 52.2133C104.399 54.5694 104.919 56.8632 105.636 58.9313L105.819 59.4606L105.26 59.4275C101.438 59.1997 98.062 61.2211 96.2671 63.6941C94.3997 66.1996 94.1626 69.1269 94.5386 71.2923C94.9066 73.5077 95.8348 75.0735 96.5442 76.0315C97.2699 76.9915 97.7754 77.4086 97.7354 77.4519Z" fill="#455A64"/>
<path d="M160.953 19.8952C160.998 20.0514 159.634 19.8296 157.898 21.0797C156.166 22.302 154.667 25.2611 154.227 29.0152L154.189 29.3377L153.87 29.3113C150.67 29.0483 146.626 30.2909 143.891 33.4711C143.233 34.2614 142.653 35.1869 142.288 36.1665C141.941 37.1732 141.765 38.29 141.594 39.438C141.419 40.5859 141.261 41.7785 140.899 42.9785C140.585 44.1697 139.814 45.4143 138.761 46.1715C136.513 47.9232 133.752 48.226 131.337 48.6094C128.875 48.9413 126.564 49.349 124.569 50.3576C120.541 52.3054 117.891 55.6863 116.729 58.8273C115.523 62 115.568 64.8455 115.804 66.7148C116.046 68.6071 116.448 69.6077 116.363 69.634C116.335 69.6442 116.223 69.4015 116.035 68.9262C115.868 68.4455 115.629 67.7262 115.462 66.7669C115.116 64.8726 114.963 61.9412 116.138 58.6096C117.273 55.307 119.992 51.7131 124.208 49.6234C126.297 48.5384 128.77 48.0874 131.209 47.7487C133.623 47.3654 136.244 47.0267 138.21 45.4752C140.144 44.1149 140.354 41.5554 140.73 39.3055C140.909 38.1548 141.091 36.9961 141.485 35.8779C141.914 34.7556 142.536 33.7943 143.26 32.937C146.242 29.5412 150.536 28.3101 153.928 28.6562L153.572 28.9517C154.112 25.0427 155.763 22.0133 157.686 20.7809C158.624 20.1616 159.495 19.9493 160.069 19.8932C160.652 19.8621 160.953 19.8628 160.953 19.8952Z" fill="#455A64"/>
<path d="M137.584 56.0276C139.516 52.2505 136.92 47.4998 132.669 47.5093C130.336 47.5147 127.826 48.7762 125.74 52.7677C120.178 63.4101 132.033 66.7864 132.211 66.4909C132.322 66.307 135.321 60.4504 137.584 56.0276Z" fill="#EF9D78"/>
<path d="M131.062 60.7627C131.033 60.7045 130.808 60.7958 130.419 60.7762C130.039 60.7566 129.463 60.5794 129.015 60.0825C128.104 59.0833 128.088 56.805 129.039 54.86C129.518 53.8777 130.203 53.061 130.946 52.4762C131.678 51.8671 132.467 51.5852 133.087 51.7806C133.719 51.9442 133.944 52.4918 133.918 52.8596C133.905 53.2314 133.727 53.4085 133.774 53.4565C133.79 53.4984 134.096 53.397 134.24 52.913C134.307 52.679 134.313 52.3626 134.169 52.028C134.022 51.6873 133.701 51.3858 133.283 51.2228C132.431 50.8517 131.296 51.2215 130.48 51.8624C129.616 52.4843 128.823 53.3896 128.285 54.4936C127.233 56.6739 127.284 59.253 128.593 60.4997C129.241 61.0851 129.985 61.1852 130.44 61.102C130.908 61.0101 131.088 60.8012 131.062 60.7627Z" fill="#D37A57"/>
<path d="M126.958 203.824C126.015 202.078 123.592 201.003 123.592 201.003L121.573 196.034C121.573 196.034 122.381 194.287 121.573 192.138C120.765 189.989 114.842 177.497 114.976 177.094L113.444 177.004C113.444 177.004 118.903 190.224 119.441 190.896C119.98 191.567 120.765 195.501 119.419 196.038C118.073 196.575 115.212 195.12 114.001 193.911C112.789 192.703 108.93 183.608 108.258 181.727C107.585 179.846 108.784 177.228 108.784 177.228L109.861 174.676H108.38C108.38 174.676 107.438 177.363 106.899 179.915C106.36 182.467 112.418 193.616 113.361 194.825C114.303 196.034 117.534 196.974 119.284 198.183C121.034 199.392 120.765 203.152 120.765 203.152C120.765 203.152 119.284 205.167 119.149 207.585C119.015 210.004 124.4 221.42 128.034 223.838C131.669 226.256 135.977 224.51 136.38 224.644C136.784 224.779 137.727 222.763 137.727 222.763C137.727 222.763 127.9 205.57 126.958 203.824ZM131.92 223.789C129.98 223.634 127.985 222.308 126.92 220.905C126.478 220.323 121.765 212.139 121.157 210.615C120.096 207.956 120.83 206.483 121.216 204.925C121.776 202.664 125.279 203.989 125.279 203.989C125.279 203.989 135.59 221.766 135.357 222.308C135.125 222.85 133.86 223.944 131.92 223.789Z" fill="#263238"/>
<path d="M137.727 222.763C137.727 222.763 167.752 211.362 169.154 210.07C170.556 208.779 175.624 201.355 175.624 201.355C175.624 201.355 178.104 201.785 177.78 202.431C177.457 203.077 172.712 210.501 167.643 212.653C162.575 214.805 136.381 224.644 136.381 224.644L137.727 222.763Z" fill="#263238"/>
<path d="M42.7208 128.825L30.3526 199.982C30.3526 199.982 25.7994 213.827 26.4498 216.856C27.1003 219.885 29.3999 232.95 36.3381 237.06C43.2764 241.17 57.02 238.489 59.8386 235.676C62.6573 232.864 68.2119 227.709 68.8624 225.33C69.5128 222.95 74.0748 186.768 74.0748 186.768L75.8832 176.619C75.8832 176.619 69.1625 178.782 65.043 175.97C60.9234 173.157 55.5036 161.043 55.5036 161.043L49.4327 170.345L42.7208 128.825Z" fill="#B7C0C9"/>
<path d="M55.5023 161.044C55.5125 161.05 55.4305 161.189 55.2659 161.445C55.0782 161.729 54.8349 162.098 54.5321 162.557C53.8938 163.521 52.9744 164.918 51.8686 166.664C49.6442 170.149 46.6744 175.028 43.4289 180.438C40.1834 185.851 37.2557 190.758 35.0793 194.276C33.9939 196.036 33.0975 197.451 32.466 198.42C32.1611 198.878 31.9158 199.245 31.7274 199.529C31.5553 199.78 31.4598 199.909 31.4496 199.903C31.4395 199.896 31.5147 199.755 31.6671 199.491C31.8413 199.199 32.0676 198.819 32.3494 198.347C32.9653 197.319 33.8197 195.894 34.8659 194.147C36.9982 190.561 39.9097 185.666 43.1267 180.256C46.3729 174.845 49.3785 169.982 51.6592 166.528C52.7935 164.798 53.7454 163.419 54.4196 162.478C54.7448 162.035 55.007 161.678 55.2083 161.403C55.3912 161.16 55.4922 161.036 55.5023 161.044Z" fill="#263238"/>
<path d="M74.3277 185.346C74.3365 185.355 74.2485 185.456 74.0723 185.641C73.8907 185.821 73.6441 186.11 73.2762 186.429C72.5613 187.086 71.444 187.981 69.8572 188.735C69.059 189.093 68.1477 189.432 67.1246 189.595C66.1083 189.781 64.9882 189.834 63.8344 189.675C62.6818 189.526 61.49 189.218 60.3253 188.729C59.1639 188.234 58.0168 187.606 56.9158 186.841C55.8351 186.048 54.8811 185.148 54.0477 184.203C53.236 183.238 52.5442 182.235 51.9798 181.225C50.8564 179.2 50.2425 177.184 49.9274 175.473C49.6185 173.755 49.5988 172.336 49.6503 171.366C49.6679 170.88 49.7323 170.506 49.7574 170.252C49.7892 169.999 49.8116 169.866 49.8238 169.867C49.8549 169.871 49.8123 170.406 49.7879 171.37C49.7791 172.334 49.8367 173.737 50.1727 175.426C50.5156 177.109 51.145 179.085 52.2643 181.066C52.8267 182.054 53.5117 183.034 54.3099 183.977C55.1304 184.901 56.0661 185.779 57.1225 186.555C58.1964 187.302 59.3252 187.923 60.4588 188.412C61.5964 188.894 62.7557 189.2 63.8757 189.354C64.9971 189.518 66.0845 189.476 67.0751 189.308C68.0732 189.161 68.9662 188.845 69.7542 188.509C71.3214 187.799 72.4489 186.947 73.1854 186.327C73.9192 185.699 74.3047 185.323 74.3277 185.346Z" fill="#263238"/>
<path d="M55.5024 161.044L64.7538 155.107C64.7538 155.107 89.4204 145.108 91.926 144.532C94.431 143.955 97.3221 142.801 98.6711 144.532C100.02 146.262 114.088 156.453 114.088 156.453C114.088 156.453 122.374 172.028 122.374 174.143C122.374 176.258 124.687 178.965 122.374 179.727C120.062 180.488 120.062 180.488 120.062 180.488C120.062 180.488 119.291 184.259 116.4 184.681C113.51 185.103 112.546 184.681 112.546 184.681C112.546 184.681 112.354 188.452 110.041 188.22C107.729 187.987 103.875 184.681 103.875 184.681C103.875 184.681 102.14 186.641 100.791 186.641C99.4422 186.641 95.2027 183.756 95.2027 183.756L87.0056 176.642L79.7862 174.143L75.8834 176.619C75.8834 176.619 67.5461 177.327 66.2946 176.648C65.0418 175.97 55.5024 161.044 55.5024 161.044Z" fill="#EF9D78"/>
<path d="M102.865 185.346C102.842 185.352 102.691 184.963 102.44 184.255C102.32 183.9 102.165 183.467 101.955 182.977C101.749 182.485 101.542 181.914 101.243 181.312C100.964 180.703 100.654 180.037 100.27 179.348C99.9172 178.643 99.4693 177.929 99.0154 177.168C98.062 175.675 96.919 174.093 95.5761 172.551C94.2176 171.02 92.794 169.683 91.4348 168.546C90.7383 167.997 90.0872 167.461 89.4326 167.02C88.7978 166.55 88.1771 166.157 87.6073 165.802C87.0483 165.428 86.5076 165.149 86.0462 164.881C85.5861 164.609 85.1769 164.4 84.8388 164.234C84.168 163.894 83.8008 163.694 83.8102 163.672C83.8197 163.65 84.2059 163.807 84.8984 164.111C85.2467 164.259 85.6674 164.451 86.139 164.708C86.6126 164.961 87.1655 165.227 87.7367 165.589C88.3187 165.934 88.9529 166.318 89.6 166.782C90.2674 167.217 90.9314 167.749 91.6401 168.296C93.0244 169.43 94.4689 170.774 95.841 172.319C97.1975 173.878 98.3446 175.482 99.2918 176.998C99.7424 177.77 100.185 178.497 100.53 179.214C100.906 179.915 101.205 180.592 101.472 181.213C101.757 181.825 101.949 182.407 102.139 182.909C102.333 183.409 102.469 183.85 102.571 184.214C102.783 184.937 102.889 185.339 102.865 185.346Z" fill="#D37A57"/>
<path d="M112.528 185.109C112.518 185.115 112.447 185.014 112.32 184.813C112.199 184.61 112.002 184.32 111.792 183.921C111.364 183.129 110.821 181.941 110.288 180.422C109.749 178.906 109.232 177.063 108.62 175.037C107.993 173.021 107.262 170.798 106.016 168.714C104.793 166.614 103.079 164.995 101.38 163.756C99.6723 162.514 98.0299 161.514 96.7771 160.491C95.5134 159.484 94.6366 158.484 94.1596 157.715C93.9266 157.327 93.7565 157.021 93.6698 156.799C93.5736 156.582 93.5288 156.466 93.5403 156.461C93.5776 156.443 93.768 156.906 94.2742 157.638C94.7789 158.372 95.6638 159.324 96.9315 160.295C98.1884 161.281 99.8349 162.253 101.572 163.493C103.303 164.732 105.068 166.384 106.318 168.532C107.592 170.662 108.319 172.915 108.932 174.943C109.529 176.981 110.019 178.824 110.524 180.341C111.023 181.86 111.527 183.053 111.915 183.859C112.314 184.658 112.554 185.094 112.528 185.109Z" fill="#D37A57"/>
<path d="M119.48 180.651C119.468 180.653 119.433 180.538 119.376 180.316C119.313 180.054 119.237 179.734 119.145 179.344C119.054 178.92 118.935 178.405 118.76 177.814C118.59 177.224 118.429 176.541 118.169 175.812C117.931 175.076 117.666 174.271 117.32 173.43C117.011 172.574 116.596 171.694 116.18 170.761C115.295 168.92 114.205 166.949 112.885 164.992C111.546 163.048 110.109 161.313 108.718 159.814C108.001 159.085 107.333 158.377 106.649 157.775C105.992 157.145 105.339 156.604 104.74 156.112C104.156 155.603 103.58 155.203 103.091 154.828C102.605 154.449 102.168 154.148 101.807 153.908C101.477 153.679 101.206 153.491 100.986 153.337C100.8 153.203 100.705 153.128 100.712 153.117C100.718 153.107 100.825 153.162 101.024 153.277C101.255 153.416 101.538 153.587 101.882 153.794C102.257 154.017 102.707 154.302 103.206 154.668C103.708 155.03 104.299 155.418 104.897 155.918C105.509 156.4 106.176 156.934 106.847 157.56C107.545 158.156 108.225 158.862 108.954 159.591C110.37 161.089 111.827 162.833 113.177 164.794C114.509 166.768 115.599 168.76 116.475 170.625C116.886 171.569 117.293 172.46 117.593 173.326C117.93 174.179 118.182 174.993 118.407 175.739C118.653 176.478 118.798 177.168 118.951 177.767C119.109 178.365 119.208 178.887 119.279 179.317C119.345 179.713 119.401 180.039 119.445 180.304C119.479 180.529 119.492 180.649 119.48 180.651Z" fill="#D37A57"/>
<path d="M83.1766 154.403C83.1861 154.461 82.6982 154.535 81.9861 154.841C81.2787 155.142 80.3491 155.724 79.6404 156.657C78.9323 157.592 78.622 158.642 78.5245 159.403C78.4215 160.17 78.4824 160.659 78.4242 160.666C78.3869 160.674 78.2338 160.19 78.2758 159.38C78.3124 158.579 78.601 157.445 79.3585 156.445C80.1167 155.447 81.1337 154.862 81.8953 154.61C82.6657 154.35 83.1745 154.365 83.1766 154.403Z" fill="#D37A57"/>
<path d="M90.0482 147.889C90.1044 147.98 88.9079 148.735 87.7289 149.989C86.5384 151.233 85.848 152.467 85.7538 152.416C85.6718 152.384 86.241 151.037 87.4728 149.747C88.6944 148.451 90.0116 147.809 90.0482 147.889Z" fill="#D37A57"/>
<path d="M186.743 67.6092C185.571 68.0926 185.334 69.4893 185.353 70.7542C185.376 72.3375 185.775 72.5951 187.071 75.2472C189.188 79.5821 191.721 87.7989 191.721 87.7989C191.721 87.7989 189.644 108.555 191.012 113.427C192.246 117.825 196.411 118.951 196.411 118.951L194.515 134.982H217.206C217.206 134.982 216.399 119.466 215.912 114.737C215.397 109.735 215.74 79.4794 215.74 79.4794L213.511 63.3243L208.255 54.2571C208.255 54.2571 205.521 55.8978 206.707 59.2213C207.892 62.5448 208.673 68.9187 208.673 68.9187L195.536 49.188C195.536 49.188 192.953 49.8039 192.798 54.5728C192.798 54.5728 188.977 57.0539 191.435 61.0805C194.18 65.5769 197.034 79.0873 196.032 79.0873L187.88 67.1413L186.743 67.6092Z" fill="#EF9D78"/>
<path d="M194.514 134.982C194.514 134.982 194.541 134.62 194.616 133.919C194.695 133.209 194.81 132.171 194.961 130.814C195.275 128.081 195.734 124.075 196.323 118.939L196.387 119.034C195.371 118.714 194.386 118.177 193.497 117.435C192.606 116.698 191.836 115.73 191.328 114.581C190.784 113.44 190.645 112.121 190.532 110.8C190.453 109.47 190.421 108.094 190.435 106.676C190.498 101.006 190.937 94.6677 191.578 87.7841L191.584 87.8395C190.521 84.5011 189.345 80.9782 187.869 77.4093C187.497 76.5183 187.099 75.6313 186.653 74.7538C186.23 73.8627 185.68 73.0346 185.356 72.032C185.211 71.5236 185.19 70.9989 185.194 70.4858C185.205 69.97 185.253 69.444 185.419 68.9336C185.577 68.4286 185.882 67.9222 186.368 67.6254C186.613 67.4726 186.861 67.3902 187.096 67.2888L187.815 66.9913L187.937 66.9413L188.01 67.0501C190.714 71.0077 193.575 75.1946 196.517 79.501L196.21 79.5632C196.342 78.562 196.283 77.4844 196.169 76.4358C196.042 75.3818 195.874 74.3218 195.626 73.2705C195.156 71.1632 194.495 69.0695 193.728 66.992C192.98 64.8996 192.04 62.8768 191.124 60.7871C190.689 59.7237 190.461 58.5061 190.757 57.344C191.025 56.1811 191.725 55.1495 192.696 54.4261L192.619 54.5512C192.749 53.5506 192.942 52.5088 193.343 51.5028C193.543 51.0005 193.802 50.5104 194.138 50.0649C194.486 49.6268 194.882 49.2117 195.495 49.0156L195.605 48.9805L195.678 49.0907C195.726 49.1623 195.779 49.2408 195.83 49.3192C200.275 55.9959 204.619 62.5212 208.814 68.8227L208.498 68.9397C208.15 66.3105 207.731 63.7124 207.112 61.2097C206.954 60.585 206.779 59.9677 206.572 59.366C206.366 58.7468 206.212 58.0863 206.246 57.4197C206.296 56.073 207.07 54.8453 208.166 54.1138L208.308 54.0191L208.398 54.1733C210.192 57.273 211.941 60.2956 213.647 63.2432L213.663 63.2709L213.667 63.302C214.443 68.9532 215.183 74.3454 215.884 79.4584L215.885 79.4693V79.4801C215.791 87.8483 215.742 95.5046 215.752 102.281C215.761 105.668 215.778 108.837 215.857 111.762C215.898 113.227 215.981 114.617 216.116 115.957C216.228 117.294 216.312 118.57 216.394 119.78C216.707 124.623 216.901 128.423 217.033 131.012C217.093 132.301 217.14 133.29 217.172 133.968C217.2 134.636 217.202 134.981 217.202 134.981C217.202 134.981 217.169 134.637 217.126 133.97C217.084 133.293 217.023 132.304 216.943 131.017C216.782 128.43 216.561 124.63 216.223 119.792C216.134 118.582 216.044 117.307 215.927 115.973C215.786 114.644 215.696 113.231 215.649 111.769C215.558 108.84 215.53 105.67 215.511 102.281C215.479 95.5033 215.511 87.8463 215.589 79.4767L215.591 79.4983C214.88 74.386 214.132 68.9951 213.348 63.3453L213.368 63.4035C211.659 60.4579 209.905 57.4373 208.108 54.3396L208.339 54.3991C207.35 55.0616 206.62 56.2082 206.583 57.4339C206.554 58.0491 206.693 58.6548 206.893 59.2531C207.105 59.8684 207.283 60.4937 207.442 61.1245C208.069 63.6522 208.49 66.251 208.841 68.8957L208.94 69.634L208.526 69.012C204.329 62.7119 199.984 56.1872 195.537 49.5118C195.485 49.4334 195.432 49.3557 195.384 49.2833L195.568 49.3577C195.137 49.4936 194.72 49.8762 194.417 50.2771C194.106 50.6882 193.861 51.1513 193.67 51.6313C193.286 52.594 193.096 53.6108 192.968 54.5911L192.959 54.6661L192.891 54.7161C192.015 55.3679 191.337 56.3515 191.097 57.4217C190.823 58.496 191.032 59.6351 191.447 60.6526C192.35 62.7152 193.305 64.7725 194.052 66.8689C194.823 68.9586 195.487 71.0659 195.96 73.1934C196.21 74.2542 196.379 75.3264 196.506 76.3959C196.619 77.4708 196.685 78.5336 196.541 79.6261L196.484 80.0554L196.234 79.689C193.297 75.3798 190.441 71.1896 187.741 67.2293L187.937 67.2874C187.472 67.4923 186.939 67.6673 186.537 67.8945C186.132 68.1406 185.867 68.5678 185.72 69.0303C185.568 69.494 185.52 69.9937 185.509 70.4892C185.504 70.9875 185.525 71.483 185.657 71.9448C185.949 72.8622 186.506 73.7241 186.928 74.6138C187.376 75.4967 187.777 76.3966 188.149 77.291C189.626 80.8802 190.795 84.4051 191.854 87.755L191.862 87.7814L191.859 87.8104C191.204 94.6839 190.748 101.02 190.668 106.676C190.648 108.091 190.677 109.461 190.75 110.784C190.859 112.098 190.988 113.382 191.513 114.495C192.496 116.754 194.495 118.226 196.43 118.864L196.502 118.887L196.493 118.958C195.869 124.088 195.381 128.092 195.048 130.822C194.878 132.177 194.748 133.214 194.659 133.922C194.572 134.624 194.514 134.982 194.514 134.982Z" fill="#D37A57"/>
<path d="M204.542 80.824C204.517 80.8274 204.431 80.4285 204.296 79.7052C204.172 78.9804 203.95 77.9393 203.658 76.6595C203.051 74.1067 202.009 70.6156 200.304 66.9879C198.614 63.3527 196.664 60.2746 195.194 58.0964C194.46 57.0052 193.849 56.1318 193.424 55.5307C193.002 54.9277 192.777 54.5876 192.796 54.5728C192.815 54.5579 193.077 54.8709 193.535 55.4489C193.994 56.0256 194.636 56.8788 195.4 57.9551C196.927 60.1036 198.923 63.1783 200.625 66.8398C202.342 70.4939 203.356 74.027 203.903 76.6054C204.165 77.8987 204.35 78.9507 204.433 79.6842C204.525 80.415 204.566 80.8207 204.542 80.824Z" fill="#D37A57"/>
<path d="M211.589 75.7861C211.499 75.8233 210.756 74.2508 209.93 72.2733C209.104 70.2952 208.507 68.6619 208.597 68.6247C208.687 68.5875 209.429 70.16 210.255 72.1381C211.082 74.1149 211.679 75.7483 211.589 75.7861Z" fill="#D37A57"/>
<path d="M192.701 128.345C188.721 163.414 183.534 200.746 177.573 239.53H223.763C232.447 220.344 227.137 203.603 224.82 179.743L217.203 125.571L192.701 128.345Z" fill="#B7C0C9"/>
<path d="M177.574 239.529C177.568 239.529 177.574 239.451 177.59 239.301C177.611 239.133 177.639 238.913 177.673 238.636C177.756 238.03 177.874 237.174 178.025 236.082C178.35 233.845 178.815 230.646 179.389 226.703C180.557 218.766 182.167 207.839 183.945 195.768C185.687 183.679 187.16 172.722 188.131 164.779C188.625 160.809 188.999 157.593 189.251 155.37C189.38 154.276 189.48 153.418 189.551 152.811C189.588 152.534 189.616 152.315 189.638 152.147C189.66 151.997 189.673 151.921 189.679 151.921C189.686 151.922 189.684 152 189.674 152.151C189.661 152.32 189.644 152.541 189.622 152.819C189.566 153.428 189.488 154.288 189.387 155.385C189.176 157.613 188.84 160.834 188.379 164.81C187.471 172.763 186.036 183.728 184.294 195.819C182.55 207.906 180.866 218.833 179.635 226.741C179.015 230.677 178.513 233.87 178.16 236.103C177.982 237.19 177.843 238.043 177.744 238.647C177.695 238.922 177.656 239.139 177.626 239.307C177.597 239.454 177.58 239.53 177.574 239.529Z" fill="#263238"/>
<path d="M277.652 239.222H145.938L162.933 146.987C163.536 143.716 166.394 141.34 169.728 141.34H288.078C292.415 141.34 295.68 145.28 294.864 149.531L277.652 239.222Z" fill="#DADBD8"/>
<path d="M145.938 239.222H95.979L96.1796 239.072C100.636 235.737 106.016 233.859 111.585 233.694L147.311 232.645L145.938 239.222Z" fill="#DADBD8"/>
<path d="M177.574 141.466C177.569 141.499 177.208 141.398 176.509 141.393C175.817 141.388 174.769 141.53 173.583 142.117C172.406 142.697 171.092 143.734 170.073 145.304C169.055 146.881 168.365 148.939 167.922 151.266C167.491 153.599 167.113 156.19 166.647 158.953C166.171 161.716 165.663 164.668 165.081 167.766C163.934 173.965 162.573 180.762 161.095 187.883C158.12 202.129 155.367 215.007 153.567 224.368C152.661 229.047 151.962 232.839 151.489 235.462C151.254 236.745 151.071 237.755 150.938 238.481C150.874 238.803 150.823 239.06 150.782 239.264C150.744 239.44 150.721 239.53 150.712 239.529C150.704 239.527 150.711 239.435 150.732 239.256C150.76 239.051 150.795 238.79 150.839 238.465C150.949 237.736 151.103 236.72 151.299 235.43C151.714 232.796 152.362 228.992 153.224 224.303C154.938 214.921 157.638 202.025 160.611 187.783C162.089 180.663 163.463 173.873 164.633 167.682C165.228 164.589 165.75 161.641 166.244 158.883C166.728 156.122 167.124 153.549 167.58 151.197C168.048 148.853 168.774 146.757 169.841 145.154C170.913 143.551 172.278 142.513 173.499 141.944C174.727 141.369 175.806 141.256 176.51 141.293C177.221 141.332 177.574 141.466 177.574 141.466Z" fill="#263238"/>
<path opacity="0.64" d="M235.383 196.039L235.839 193.399L245.679 182.167H249.567L247.671 193.111H249.759L249.255 196.039H247.143L246.519 199.447H243.183L243.783 196.039H235.383ZM245.799 185.767L239.607 193.111H244.503L245.799 185.767Z" fill="#0E2E4A"/>
<path opacity="0.64" d="M220.948 190.688C221.428 188 222.3 185.88 223.564 184.328C224.844 182.776 226.644 182 228.964 182C232.452 182 234.196 183.888 234.196 187.664C234.196 188.624 234.1 189.632 233.908 190.688C232.884 196.496 230.212 199.4 225.892 199.4C222.404 199.4 220.66 197.504 220.66 193.712C220.66 192.752 220.756 191.744 220.948 190.688ZM230.596 190.688C230.788 189.616 230.884 188.728 230.884 188.024C230.884 187.112 230.692 186.4 230.308 185.888C229.94 185.376 229.308 185.12 228.412 185.12C227.132 185.12 226.196 185.608 225.604 186.584C225.012 187.56 224.564 188.928 224.26 190.688C224.068 191.76 223.972 192.648 223.972 193.352C223.972 194.28 224.156 195 224.524 195.512C224.908 196.024 225.548 196.28 226.444 196.28C227.34 196.28 228.06 196.032 228.604 195.536C229.148 195.04 229.564 194.4 229.852 193.616C230.14 192.816 230.388 191.84 230.596 190.688Z" fill="#0E2E4A"/>
<path opacity="0.64" d="M204 196.039L204.456 193.399L214.296 182.167H218.184L216.288 193.111H218.376L217.872 196.039H215.76L215.136 199.447H211.8L212.4 196.039H204ZM214.416 185.767L208.224 193.111H213.12L214.416 185.767Z" fill="#0E2E4A"/>
<path d="M310.064 239.329C310.064 239.427 240.706 239.505 155.169 239.505C69.6011 239.505 0.258301 239.426 0.258301 239.329C0.258301 239.233 69.6018 239.154 155.169 239.154C240.707 239.153 310.064 239.232 310.064 239.329Z" fill="#263238"/>
</g>
<defs>
<clipPath id="clip0_11219_3574">
<rect width="311" height="240" fill="white"/>
</clipPath>
</defs>
</svg>
