<svg width="28" height="34" viewBox="0 0 28 34" fill="none" xmlns="http://www.w3.org/2000/svg">
    <path
        d="M10.667 23.6654H17.3337C17.8059 23.6654 18.202 23.5054 18.522 23.1854C18.842 22.8654 19.0014 22.4698 19.0003 21.9987V16.9987C19.0003 16.5265 18.8403 16.1309 18.5203 15.812C18.2003 15.4931 17.8048 15.3331 17.3337 15.332V13.6654C17.3337 12.7487 17.0075 11.9643 16.3553 11.312C15.7031 10.6598 14.9181 10.3331 14.0003 10.332C13.0837 10.332 12.2992 10.6587 11.647 11.312C10.9948 11.9654 10.6681 12.7498 10.667 13.6654V15.332C10.1948 15.332 9.79921 15.492 9.48033 15.812C9.16144 16.132 9.00144 16.5276 9.00033 16.9987V21.9987C9.00033 22.4709 9.16033 22.867 9.48033 23.187C9.80033 23.507 10.1959 23.6665 10.667 23.6654ZM12.3337 15.332V13.6654C12.3337 13.1931 12.4937 12.7976 12.8137 12.4787C13.1337 12.1598 13.5292 11.9998 14.0003 11.9987C14.4725 11.9987 14.8687 12.1587 15.1887 12.4787C15.5087 12.7987 15.6681 13.1943 15.667 13.6654V15.332H12.3337ZM14.0003 33.4987C13.8059 33.4987 13.6253 33.4848 13.4587 33.457C13.292 33.4293 13.1253 33.3876 12.9587 33.332C9.20866 32.082 6.22255 29.7693 4.00033 26.3937C1.7781 23.0181 0.666992 19.3865 0.666992 15.4987V7.6237C0.666992 6.92925 0.868659 6.30425 1.27199 5.7487C1.67533 5.19314 2.19588 4.79036 2.83366 4.54036L12.8337 0.790365C13.2225 0.651476 13.6114 0.582031 14.0003 0.582031C14.3892 0.582031 14.7781 0.651476 15.167 0.790365L25.167 4.54036C25.8059 4.79036 26.327 5.19314 26.7303 5.7487C27.1337 6.30425 27.3348 6.92925 27.3337 7.6237V15.4987C27.3337 19.3876 26.2225 23.0198 24.0003 26.3954C21.7781 29.7709 18.792 32.0831 15.042 33.332C14.8753 33.3876 14.7087 33.4293 14.542 33.457C14.3753 33.4848 14.1948 33.4987 14.0003 33.4987ZM14.0003 30.1654C16.8892 29.2487 19.2781 27.4154 21.167 24.6654C23.0559 21.9154 24.0003 18.8598 24.0003 15.4987V7.6237L14.0003 3.8737L4.00033 7.6237V15.4987C4.00033 18.8598 4.94477 21.9154 6.83366 24.6654C8.72255 27.4154 11.1114 29.2487 14.0003 30.1654Z"
        fill="#24303D" />
</svg>