<svg width="16" height="16" viewBox="0 0 16 16" fill="none" xmlns="http://www.w3.org/2000/svg">
<path d="M14.2554 5.9901L3.75543 0.740096C3.34105 0.533853 2.87314 0.460429 2.41551 0.529835C1.95787 0.599241 1.53277 0.808099 1.19818 1.12793C0.863582 1.44777 0.635769 1.86301 0.545799 2.31705C0.455829 2.7711 0.508081 3.24184 0.69543 3.6651L2.49543 7.6926C2.53627 7.78997 2.55731 7.8945 2.55731 8.0001C2.55731 8.10569 2.53627 8.21022 2.49543 8.3076L0.69543 12.3351C0.542955 12.6776 0.478496 13.0528 0.507913 13.4266C0.537329 13.8004 0.659686 14.1609 0.863866 14.4754C1.06805 14.7898 1.34757 15.0483 1.67705 15.2273C2.00652 15.4062 2.37549 15.5 2.75043 15.5001C3.1016 15.4966 3.44755 15.4146 3.76293 15.2601L14.2629 10.0101C14.6354 9.82274 14.9484 9.53558 15.1672 9.18066C15.386 8.82574 15.5018 8.41702 15.5018 8.0001C15.5018 7.58318 15.386 7.17446 15.1672 6.81954C14.9484 6.46462 14.6354 6.17746 14.2629 5.9901H14.2554ZM13.5879 8.6676L3.08793 13.9176C2.95005 13.9838 2.79523 14.0063 2.64422 13.982C2.49321 13.9577 2.35324 13.8878 2.24306 13.7817C2.13289 13.6756 2.05779 13.5384 2.02783 13.3884C1.99787 13.2384 2.01447 13.0829 2.07543 12.9426L3.86793 8.9151C3.89113 8.86132 3.91117 8.80622 3.92793 8.7501H9.09543C9.29434 8.7501 9.48511 8.67108 9.62576 8.53043C9.76641 8.38977 9.84543 8.19901 9.84543 8.0001C9.84543 7.80118 9.76641 7.61042 9.62576 7.46977C9.48511 7.32911 9.29434 7.2501 9.09543 7.2501H3.92793C3.91117 7.19397 3.89113 7.13888 3.86793 7.0851L2.07543 3.0576C2.01447 2.91732 1.99787 2.76176 2.02783 2.61177C2.05779 2.46179 2.13289 2.32455 2.24306 2.21846C2.35324 2.11237 2.49321 2.04249 2.64422 2.01821C2.79523 1.99393 2.95005 2.01639 3.08793 2.0826L13.5879 7.3326C13.7108 7.39553 13.8139 7.49116 13.8859 7.60893C13.9579 7.7267 13.996 7.86206 13.996 8.0001C13.996 8.13813 13.9579 8.27349 13.8859 8.39126C13.8139 8.50904 13.7108 8.60466 13.5879 8.6676Z" fill="#333333"/>
</svg>
