<svg width="16" height="10" viewBox="0 0 16 10" fill="none" xmlns="http://www.w3.org/2000/svg">
<path d="M15.71 4.29019L11.71 0.290185C11.6168 0.196947 11.5061 0.122986 11.3842 0.072526C11.2624 0.0220656 11.1319 -0.00390625 11 -0.00390625C10.8681 -0.00390625 10.7376 0.0220657 10.6158 0.072526C10.4939 0.122986 10.3832 0.196947 10.29 0.290185C10.1968 0.383424 10.1228 0.494114 10.0723 0.615936C10.0219 0.737758 9.99591 0.868326 9.99591 1.00019C9.99591 1.13204 10.0219 1.26261 10.0723 1.38444C10.1228 1.50626 10.1968 1.61695 10.29 1.71019L12.59 4.00019H1C0.734784 4.00019 0.48043 4.10554 0.292893 4.29308C0.105357 4.48062 0 4.73497 0 5.00019C0 5.2654 0.105357 5.51976 0.292893 5.70729C0.48043 5.89483 0.734784 6.00019 1 6.00019H12.59L10.29 8.29019C10.1963 8.38315 10.1219 8.49375 10.0711 8.61561C10.0203 8.73747 9.9942 8.86817 9.9942 9.00019C9.9942 9.1322 10.0203 9.2629 10.0711 9.38476C10.1219 9.50662 10.1963 9.61722 10.29 9.71018C10.383 9.80391 10.4936 9.87831 10.6154 9.92908C10.7373 9.97985 10.868 10.006 11 10.006C11.132 10.006 11.2627 9.97985 11.3846 9.92908C11.5064 9.87831 11.617 9.80391 11.71 9.71018L15.71 5.71019C15.801 5.61508 15.8724 5.50294 15.92 5.38019C16.02 5.13672 16.02 4.86365 15.92 4.62019C15.8724 4.49743 15.801 4.38529 15.71 4.29019Z" fill="#333333"/>
</svg>
