<svg width="16" height="16" viewBox="0 0 16 16" fill="none" xmlns="http://www.w3.org/2000/svg">
<path d="M15.5001 6.25273C15.4527 6.11555 15.3666 5.99505 15.2521 5.90586C15.1376 5.81666 14.9997 5.7626 14.8551 5.75023L10.5876 5.12773L8.6751 1.25023C8.61369 1.12343 8.5178 1.01649 8.39842 0.941661C8.27904 0.866835 8.141 0.827148 8.0001 0.827148C7.85921 0.827148 7.72117 0.866835 7.60179 0.941661C7.48241 1.01649 7.38652 1.12343 7.32511 1.25023L5.41261 5.12023L1.14511 5.75023C1.0063 5.76996 0.875798 5.8282 0.768418 5.91835C0.661037 6.0085 0.581075 6.12694 0.537605 6.26023C0.497814 6.39049 0.494243 6.52912 0.527276 6.66125C0.560309 6.79338 0.628698 6.91402 0.725105 7.01023L3.82261 10.0102L3.07261 14.2702C3.04583 14.4108 3.05985 14.5562 3.11301 14.6891C3.16617 14.822 3.25625 14.9369 3.37261 15.0202C3.48602 15.1013 3.61979 15.1492 3.75889 15.1584C3.898 15.1677 4.03693 15.138 4.16011 15.0727L8.0001 13.0702L11.8251 15.0802C11.9304 15.1396 12.0492 15.1706 12.1701 15.1702C12.329 15.1708 12.4839 15.1209 12.6126 15.0277C12.729 14.9444 12.819 14.8295 12.8722 14.6966C12.9254 14.5637 12.9394 14.4183 12.9126 14.2777L12.1626 10.0177L15.2601 7.01773C15.3684 6.92599 15.4484 6.80541 15.4909 6.66999C15.5334 6.53458 15.5366 6.38989 15.5001 6.25273ZM10.8876 9.25273C10.7996 9.33781 10.7338 9.44311 10.6959 9.55946C10.658 9.67581 10.6492 9.79967 10.6701 9.92023L11.2101 13.0627L8.39011 11.5627C8.28159 11.505 8.16054 11.4747 8.03761 11.4747C7.91467 11.4747 7.79362 11.505 7.6851 11.5627L4.86511 13.0627L5.40511 9.92023C5.42606 9.79967 5.41719 9.67581 5.37928 9.55946C5.34137 9.44311 5.27556 9.33781 5.18761 9.25273L2.93761 7.00273L6.09511 6.54523C6.2166 6.52833 6.3321 6.48189 6.43148 6.40997C6.53086 6.33805 6.61107 6.24286 6.6651 6.13273L8.0001 3.27523L9.4101 6.14023C9.46414 6.25036 9.54436 6.34555 9.64373 6.41747C9.74311 6.48939 9.85861 6.53583 9.98011 6.55273L13.1376 7.01023L10.8876 9.25273Z" fill="#161616"/>
</svg>
