<svg width="40" height="34" viewBox="0 0 40 34" fill="none" xmlns="http://www.w3.org/2000/svg">
<path fill-rule="evenodd" clip-rule="evenodd" d="M18.3333 13.6654V16.7887C15.9907 16.1857 14.1463 14.3414 13.5434 11.9987H16.6667V8.66536H13.5434C14.1463 6.32269 15.9907 4.47836 18.3333 3.87539V6.9987H21.6667V3.87539C24.0093 4.47836 25.8537 6.32269 26.4566 8.66536H23.3333V11.9987H26.4566C25.8537 14.3414 24.0093 16.1857 21.6667 16.7887V13.6654H18.3333ZM20 20.332C25.5228 20.332 30 15.8549 30 10.332C30 4.80918 25.5228 0.332031 20 0.332031C14.4772 0.332031 10 4.80918 10 10.332C10 15.8549 14.4772 20.332 20 20.332Z" fill="#24303D"/>
<path fill-rule="evenodd" clip-rule="evenodd" d="M8.33333 30.3346C9.25381 30.3346 10 29.5884 10 28.668C10 27.7475 9.25381 27.0013 8.33333 27.0013C7.41286 27.0013 6.66667 27.7475 6.66667 28.668C6.66667 29.5884 7.41286 30.3346 8.33333 30.3346ZM3.61784 30.3346C4.30424 32.2766 6.1563 33.668 8.33333 33.668C10.5104 33.668 12.3624 32.2766 13.0488 30.3346H15.2845C15.9709 32.2766 17.823 33.668 20 33.668C22.177 33.668 24.0291 32.2766 24.7155 30.3346H26.9512C27.6376 32.2766 29.4896 33.668 31.6667 33.668C33.8437 33.668 35.6958 32.2766 36.3822 30.3346H40V27.0013H36.3822C35.6958 25.0593 33.8437 23.668 31.6667 23.668C29.4896 23.668 27.6376 25.0593 26.9512 27.0013H24.7155C24.0291 25.0593 22.177 23.668 20 23.668C17.823 23.668 15.9709 25.0593 15.2845 27.0013H13.0488C12.3624 25.0593 10.5104 23.668 8.33333 23.668C6.1563 23.668 4.30424 25.0593 3.61784 27.0013H0V30.3346H3.61784ZM20 30.3346C19.0795 30.3346 18.3333 29.5884 18.3333 28.668C18.3333 27.7475 19.0795 27.0013 20 27.0013C20.9205 27.0013 21.6667 27.7475 21.6667 28.668C21.6667 29.5884 20.9205 30.3346 20 30.3346ZM30 28.668C30 29.5884 30.7462 30.3346 31.6667 30.3346C32.5871 30.3346 33.3333 29.5884 33.3333 28.668C33.3333 27.7475 32.5871 27.0013 31.6667 27.0013C30.7462 27.0013 30 27.7475 30 28.668Z" fill="#24303D"/>
</svg>
