<svg width="26" height="24" viewBox="0 0 26 24" fill="none" xmlns="http://www.w3.org/2000/svg">
<path fill-rule="evenodd" clip-rule="evenodd" d="M22.1 2.66667H3.9C3.18203 2.66667 2.6 3.26362 2.6 4C2.6 4.73638 3.18203 5.33333 3.9 5.33333H5.2H20.8H22.1C22.818 5.33333 23.4 4.73638 23.4 4C23.4 3.26362 22.818 2.66667 22.1 2.66667ZM0 4C0 5.74163 1.08525 7.22328 2.6 7.77239V8V20C2.6 22.2091 4.34609 24 6.5 24H19.5C21.6539 24 23.4 22.2091 23.4 20V8V7.77239C24.9147 7.22328 26 5.74162 26 4C26 1.79086 24.2539 0 22.1 0H3.9C1.74609 0 0 1.79086 0 4ZM5.2 20V8H20.8V20C20.8 20.7364 20.218 21.3333 19.5 21.3333H6.5C5.78203 21.3333 5.2 20.7364 5.2 20ZM13.9193 10.3906C13.6841 10.1493 13.359 10 13 10C12.6342 10 12.3036 10.155 12.0674 10.4044L8.19434 14.3768C7.95112 14.6191 7.8 14.9581 7.8 15.3333C7.8 16.0697 8.38203 16.6667 9.1 16.6667C9.45898 16.6667 9.78398 16.5174 10.0192 16.2761L11.7 14.5525V18C11.7 18.7364 12.282 19.3333 13 19.3333C13.718 19.3333 14.3 18.7364 14.3 18V14.5523L15.9809 16.2762C16.2161 16.5175 16.5411 16.6667 16.9 16.6667C17.618 16.6667 18.2 16.0697 18.2 15.3333C18.2 14.9652 18.0545 14.6319 17.8193 14.3906L13.9193 10.3906Z" fill="#ADADAD"/>
</svg>
